# xmcd CD database file
#
# Track frame offsets:
#	150
#	19097
#	37173
#
# Disc length: 745 seconds
#
# Revision: 1
# Processed by: cddbd v1.5.1PL2 Copyright (c) Steve Scherf et al.
# Submitted via: CDex 1.60beta1
#
DISCID=1f02e703
DTITLE=モーニング娘。 - Ambitious! 野心的でいいじゃん
DYEAR=2006
DGENRE=J-POP
TTITLE0=Ambitious! 野心的でいいじゃん
TTITLE1=わたしがついてる。
TTITLE2=Ambitious! 野心的でいいじゃん(Instrumental)
EXTD=YEAR: 2006
EXTT0=
EXTT1=
EXTT2=
PLAYORDER=
